# xmcd
#
# Track frame offsets: 
#        150
#        17546
#        33459
#        45594
#        63245
#        92832
#        108514
#        128552
#        146098
#        161752
#        184174
#        202747
#        216027
#        232848
#        247103
#        260933
#        293785
#        307826
#        322593
#
# Disc length: 4546 seconds
#
# Revision: 0
# Processed by: cddbd v1.5.2PL0 Copyright (c) Steve Scherf et al.
# Submitted via: ExactAudioCopyFreeDBPlugin 1.0
#
DISCID=0511c013
DTITLE=Oscar Benton - The Essential
DYEAR=2014
DGENRE=Blues
TTITLE0=Bensonhurst Blues
TTITLE1=I Belive In Love
TTITLE2=All I Ever Need Is You
TTITLE3=Busted
TTITLE4=Somebody's Love Will Do
TTITLE5=St. Louis Blues
TTITLE6=The Three Bells
TTITLE7=Baby Help Me
TTITLE8=Basin Street Blues
TTITLE9=If You Go Away
TTITLE10=Today Is Yesterday's Tomorrow
TTITLE11=Stop What You're doing
TTITLE12=It Ain't Nobody's Business
TTITLE13=He's Crazy
TTITLE14=Josie
TTITLE15=I Don't Know
TTITLE16=My Petite Fleur
TTITLE17=Rock'N'Roller
TTITLE18=Today Is Yesterday's Tomorrow
EXTD=
EXTT0=
EXTT1=
EXTT2=
EXTT3=
EXTT4=
EXTT5=
EXTT6=
EXTT7=
EXTT8=
EXTT9=
EXTT10=
EXTT11=
EXTT12=
EXTT13=
EXTT14=
EXTT15=
EXTT16=
EXTT17=
EXTT18=
PLAYORDER=
